<?xml version="1.0" encoding="utf-8"?>
<!-- Generator: Adobe Illustrator 16.0.0, SVG Export Plug-In . SVG Version: 6.00 Build 0)  -->
<!DOCTYPE svg PUBLIC "-//W3C//DTD SVG 1.1//EN" "http://www.w3.org/Graphics/SVG/1.1/DTD/svg11.dtd">
<svg version="1.1" id="Layer_1" xmlns="http://www.w3.org/2000/svg" xmlns:xlink="http://www.w3.org/1999/xlink" x="0px" y="0px"
	 width="32px" height="32px" viewBox="0 0 32 32" enable-background="new 0 0 32 32" xml:space="preserve">
<path id="open_source" fill="#4285F4" d="M16,3c7.168,0,13,5.832,13,13c0,4.391-2.242,8.468-5.845,10.85l-3.179-6.359
	C21.235,19.377,22,17.751,22,16c0-3.309-2.691-6-6-6s-6,2.691-6,6c0,1.751,0.765,3.377,2.024,4.49L8.845,26.85
	C5.243,24.468,3,20.391,3,16C3,8.832,8.832,3,16,3 M16,1C7.72,1,1,7.72,1,16c0,6.03,3.56,11.23,8.7,13.61l4.93-9.86
	C13.09,19.2,12,17.73,12,16c0-2.21,1.79-4,4-4s4,1.79,4,4c0,1.73-1.09,3.2-2.63,3.75l4.93,9.86C27.44,27.23,31,22.03,31,16
	C31,7.72,24.28,1,16,1L16,1z"/>
</svg>
