<?xml version="1.0" encoding="utf-8"?>
<!-- Generator: Adobe Illustrator 16.0.0, SVG Export Plug-In . SVG Version: 6.00 Build 0)  -->
<!DOCTYPE svg PUBLIC "-//W3C//DTD SVG 1.1//EN" "http://www.w3.org/Graphics/SVG/1.1/DTD/svg11.dtd">
<svg version="1.1" id="Layer_1" xmlns="http://www.w3.org/2000/svg" xmlns:xlink="http://www.w3.org/1999/xlink" x="0px" y="0px"
	 width="32px" height="32px" viewBox="0 0 32 32" enable-background="new 0 0 32 32" xml:space="preserve">
<path fill="#4285F4" d="M19.89,18.48C20.59,17.5,21,16.3,21,15c0-3.31-2.69-6-6-6c-3.31,0-6,2.69-6,6c0,3.31,2.69,6,6,6c1.3,0,2.5-0.41,3.48-1.11
	L22,23.41L23.41,22L19.89,18.48z M15,19c-2.21,0-4-1.79-4-4s1.79-4,4-4s4,1.79,4,4c0,0.74-0.2,1.43-0.56,2.03
	c-0.341,0.58-0.83,1.069-1.41,1.41C16.43,18.8,15.74,19,15,19z M26,2H6C3.791,2,2,3.791,2,6v20c0,2.209,1.791,4,4,4h20
	c2.209,0,4-1.791,4-4V6C30,3.791,28.209,2,26,2z M28,26c0,1.104-0.896,2-2,2H6c-1.104,0-2-0.896-2-2V6c0-1.104,0.896-2,2-2h20
	c1.104,0,2,0.896,2,2V26z"/>
</svg>
