<?xml version="1.0" encoding="utf-8"?>
<!-- Generator: Adobe Illustrator 16.0.0, SVG Export Plug-In . SVG Version: 6.00 Build 0)  -->
<!DOCTYPE svg PUBLIC "-//W3C//DTD SVG 1.1//EN" "http://www.w3.org/Graphics/SVG/1.1/DTD/svg11.dtd">
<svg version="1.1" id="Layer_1" xmlns="http://www.w3.org/2000/svg" xmlns:xlink="http://www.w3.org/1999/xlink" x="0px" y="0px"
	 width="32px" height="32px" viewBox="0 0 32 32" enable-background="new 0 0 32 32" xml:space="preserve">
<path fill="#4285F4" d="M30,3H2C0.896,3,0,3.896,0,5v22c0,1.104,0.896,2,2,2h28c1.104,0,2-0.896,2-2V5C32,3.896,31.104,3,30,3z M30,27H2V13h28V27z
	 M30,11H2V5h28V11z M6,8c0,0.552-0.448,1-1,1S4,8.552,4,8s0.448-1,1-1S6,7.448,6,8z M10,8c0,0.552-0.448,1-1,1S8,8.552,8,8
	s0.448-1,1-1S10,7.448,10,8z M14,8c0,0.552-0.448,1-1,1s-1-0.448-1-1s0.448-1,1-1S14,7.448,14,8z"/>
</svg>
