<?xml version="1.0" encoding="UTF-8" standalone="no"?>
<svg width="32px" height="32px" viewBox="0 0 32 32" version="1.1" xmlns="http://www.w3.org/2000/svg" xmlns:xlink="http://www.w3.org/1999/xlink" xmlns:sketch="http://www.bohemiancoding.com/sketch/ns">
    <!-- Generator: Sketch 3.2.2 (9983) - http://www.bohemiancoding.com/sketch -->
    <title>icon-search</title>
    <desc>Created with Sketch.</desc>
    <defs></defs>
    <g id="Page-1" stroke="none" stroke-width="1" fill="none" fill-rule="evenodd" sketch:type="MSPage">
        <g id="Rectangle-6-+-Searchable-+-The-search-feature-a" sketch:type="MSLayerGroup"></g>
        <path d="M20.3287318,21.7429453 C18.6048612,23.1536347 16.4012702,24 14,24 C8.4771525,24 4,19.5228475 4,14 C4,8.4771525 8.4771525,4 14,4 C19.5228475,4 24,8.4771525 24,14 C24,16.4012702 23.1536347,18.6048612 21.7429453,20.3287318 L27.7071068,26.2928932 L28.4142136,27 L27,28.4142136 L26.2928932,27.7071068 L20.3287318,21.7429453 L20.3287318,21.7429453 Z M14,22 C18.418278,22 22,18.418278 22,14 C22,9.581722 18.418278,6 14,6 C9.581722,6 6,9.581722 6,14 C6,18.418278 9.581722,22 14,22 Z" id="Oval-1" fill="#4285F4" sketch:type="MSShapeGroup"></path>
    </g>
</svg>
