<?xml version="1.0" encoding="UTF-8" standalone="no"?>
<svg width="32px" height="32px" viewBox="0 0 32 32" version="1.1" xmlns="http://www.w3.org/2000/svg" xmlns:xlink="http://www.w3.org/1999/xlink" xmlns:sketch="http://www.bohemiancoding.com/sketch/ns">
    <!-- Generator: Sketch 3.2.2 (9983) - http://www.bohemiancoding.com/sketch -->
    <title>icon-drag</title>
    <desc>Created with Sketch.</desc>
    <defs></defs>
    <g id="Page-1" stroke="none" stroke-width="1" fill="none" fill-rule="evenodd" sketch:type="MSPage">
        <g id="Rectangle-6-+-Searchable-+-The-search-feature-a" sketch:type="MSLayerGroup"></g>
        <path d="M4,25 C3.45,25 3,24.55 3,24 L3,23 L1,23 L1,24 C1,25.66 2.34,27 4,27 L6,27 L6,25 L4,25 L4,25 Z M4,11 C2.34,11 1,12.34 1,14 L1,15 L3,15 L3,14 C3,13.45 3.45,13 4,13 L5,13 L5,11 L4,11 L4,11 Z M1,21 L3,21 L3,17 L1,17 L1,21 Z M25,23 L25,24 C25,25.66 23.66,27 22,27 L20,27 L20,25 L22,25 C22.55,25 23,24.55 23,24 L23,23 L25,23 L25,23 Z M14,25 L18,25 L18,27 L14,27 L14,25 Z M8,25 L12,25 L12,27 L8,27 L8,25 Z M28,5 L10,5 C8.343,5 7,6.343 7,8 L7,18 C7,19.657 8.343,21 10,21 L28,21 C29.657,21 31,19.657 31,18 L31,8 C31,6.343 29.657,5 28,5 L28,5 Z M29,18 C29,18.553 28.553,19 28,19 L10,19 C9.448,19 9,18.553 9,18 L9,8 C9,7.448 9.448,7 10,7 L28,7 C28.553,7 29,7.448 29,8 L29,18 L29,18 Z" id="Imported-Layers" fill="#4285F4" sketch:type="MSShapeGroup"></path>
    </g>
</svg>
