<?xml version="1.0" encoding="utf-8"?>
<!-- Generator: Adobe Illustrator 16.0.0, SVG Export Plug-In . SVG Version: 6.00 Build 0)  -->
<!DOCTYPE svg PUBLIC "-//W3C//DTD SVG 1.1//EN" "http://www.w3.org/Graphics/SVG/1.1/DTD/svg11.dtd">
<svg version="1.1" id="Layer_1" xmlns="http://www.w3.org/2000/svg" xmlns:xlink="http://www.w3.org/1999/xlink" x="0px" y="0px"
	 width="32px" height="32px" viewBox="0 0 32 32" enable-background="new 0 0 32 32" xml:space="preserve">
<path id="search" display="none" fill-rule="evenodd" clip-rule="evenodd" fill="#4285F4" d="M14,22c4.418,0,8-3.582,8-8
	s-3.582-8-8-8c-4.418,0-8,3.582-8,8S9.582,22,14,22z M20.329,21.743C18.605,23.153,16.401,24,14,24C8.477,24,4,19.522,4,14
	C4,8.477,8.477,4,14,4c5.523,0,10,4.477,10,10c0,2.401-0.847,4.604-2.257,6.329l5.964,5.964L28.414,27L27,28.414l-0.707-0.707
	L20.329,21.743z"/>
<path id="open_source" display="none" fill="#4285F4" d="M16,3c7.168,0,13,5.832,13,13c0,4.391-2.242,8.468-5.845,10.85
	l-3.179-6.359C21.235,19.377,22,17.751,22,16c0-3.309-2.691-6-6-6s-6,2.691-6,6c0,1.751,0.765,3.377,2.024,4.49L8.845,26.85
	C5.243,24.468,3,20.391,3,16C3,8.832,8.832,3,16,3 M16,1C7.72,1,1,7.72,1,16c0,6.03,3.56,11.23,8.7,13.61l4.93-9.86
	C13.09,19.2,12,17.73,12,16c0-2.21,1.79-4,4-4s4,1.79,4,4c0,1.73-1.09,3.2-2.63,3.75l4.93,9.86C27.44,27.23,31,22.03,31,16
	C31,7.72,24.28,1,16,1L16,1z"/>
<path id="drag" display="none" fill="#4285F4" d="M4,25c-0.55,0-1-0.45-1-1v-1H1v1c0,1.66,1.34,3,3,3h2v-2H4z M4,11
	c-1.66,0-3,1.34-3,3v1h2v-1c0-0.55,0.45-1,1-1h1v-2H4z M1,17v4h2v-4H1z M25,23v1c0,1.66-1.34,3-3,3h-2v-2h2c0.55,0,1-0.45,1-1v-1H25
	z M18,25v2h-4v-2H18z M12,25v2H8v-2H12z M28,5H10C8.343,5,7,6.343,7,8v10c0,1.657,1.343,3,3,3h18c1.657,0,3-1.343,3-3V8
	C31,6.343,29.657,5,28,5z M29,18c0,0.553-0.447,1-1,1H10c-0.552,0-1-0.447-1-1V8c0-0.552,0.448-1,1-1h18c0.553,0,1,0.448,1,1V18z"/>
<path id="keyboard" fill="#4285F4" d="M24.001,19H21v-6h2.999c2.762,0,5-2.238,5-5S26.762,3,24,3s-5,2.238-5,5v3h-6V8
	c0-2.761-2.239-5-5-5S3,5.239,3,8s2.239,5,5,5h3v6H8c-2.761,0-5,2.238-5,5s2.239,5,5,5c2.762,0,5-2.238,5-5v-3h6v2.999
	c0,2.762,2.238,5,5,5s5.001-2.237,5.001-4.999S26.763,19,24.001,19z M21,8c0-1.656,1.344-3,3-3s2.999,1.344,2.999,3s-1.344,3-3,3H21
	V8z M8,11c-1.657,0-3-1.343-3-3s1.343-3,3-3s3,1.343,3,3v3H8z M11,24c0,1.656-1.344,3-3,3s-3-1.344-3-3s1.344-3,3-3h3V24z M13,19v-6
	h6v6H13z M24,26.999c-1.656,0-3-1.344-3-3V21h3.001c1.656,0,3,1.344,3,3S25.656,26.999,24,26.999z"/>
</svg>
